# AST/ASF file generated using VICON BodyLanguage
# -----------------------------------------------
:version 1.10
:name VICON
:units
  mass 1.0
  length 0.45
  angle deg
:documentation
   .ast/.asf automatically generated from VICON data using
   VICON BodyBuilder and BodyLanguage model FoxedUp or BRILLIANT.MOD
:root
   order TX TY TZ RX RY RZ
   axis XYZ
   position 0 0 0  
   orientation 0 0 0 
:bonedata
  begin
     id 1 
     name lhipjoint
     direction 0.528046 -0.759594 0.379717 
     length 2.39752 
     axis 0 0 0  XYZ
  end
  begin
     id 2 
     name lfemur
     direction 0.34202 -0.939693 0  
     length 7.31175  
     axis 0 0 20  XYZ
    dof rx ry rz
    limits (-160.0 20.0)
           (-70.0 70.0)
           (-60.0 70.0)
  end
  begin
     id 3 
     name ltibia
     direction 0.34202 -0.939693 0   
     length 7.52482   
     axis 0 0 20   XYZ
    dof rx
    limits (-10.0 170.0)
  end
  begin
     id 4 
     name lfoot
     direction 0.0675379 -0.185559 0.980309   
     length 2.00961   
     axis -90 7.62852e-016 20   XYZ
    dof rx rz
    limits (-45.0 90.0)
           (-70.0 20.0)
  end
  begin
     id 5 
     name ltoes
     direction 1.5352e-011 -4.22286e-011 1   
     length 1.01383   
     axis -90 7.62852e-016 20   XYZ
    dof rx
    limits (-90.0 20.0)
  end
  begin
     id 6 
     name rhipjoint
     direction -0.510274 -0.769251 0.384544   
     length 2.36742  
     axis 0 0 0  XYZ 
  end
  begin
     id 7 
     name rfemur
     direction -0.34202 -0.939693 0   
     length 7.45325   
     axis 0 0 -20   XYZ
    dof rx ry rz
    limits (-160.0 20.0)
           (-70.0 70.0)
           (-70.0 60.0)
  end
  begin
     id 8 
     name rtibia
     direction -0.34202 -0.939693 0   
     length 7.49587   
     axis 0 0 -20   XYZ
    dof rx
    limits (-10.0 170.0)
 end
 begin
     id 9 
     name rfoot
     direction -0.106475 -0.292536 0.950308   
     length 2.20898  
     axis -90 -7.62852e-016 -20   XYZ
    dof rx rz
    limits (-45.0 90.0)
           (-20.0 70.0)
  end
  begin
     id 10 
     name rtoes
     direction -1.53597e-011 -4.22023e-011 1   
     length 1.10065   
     axis -90 -7.62852e-016 -20   XYZ
    dof rx
    limits (-90.0 20.0)
  end
  begin
     id 11 
     name lowerback
     direction 0.0260024 0.998026 -0.0571652   
     length 2.11214   
     axis 0 0 0   XYZ
    dof rx ry rz
    limits (-20.0 45.0)
           (-30.0 30.0)
           (-30.0 30.0)
  end
  begin
     id 12 
     name upperback
     direction 0.0216202 0.999542 -0.0211766   
     length 2.11689   
     axis 0 0 0   XYZ
    dof rx ry rz
    limits (-20.0 45.0)
           (-30.0 30.0)
           (-30.0 30.0)
  end
  begin
     id 13 
     name thorax
     direction 0.00883312 0.999944 0.00589057   
     length 2.11821   
     axis 0 0 0   XYZ
    dof rx ry rz
    limits (-20.0 45.0)
           (-30.0 30.0)
           (-30.0 30.0)
  end
  begin
     id 14 
     name lowerneck
     direction -0.059386 0.994433 0.0870401   
     length 1.81176   
     axis 0 0 0   XYZ
    dof rx ry rz
    limits (-20.0 45.0)
           (-30.0 30.0)
           (-30.0 30.0)
  end
  begin
     id 15 
     name upperneck
     direction 0.0506457 0.97328 -0.223967   
     length 1.82382   
     axis 0 0 0   XYZ
    dof rx ry rz
    limits (-20.0 45.0)
           (-30.0 30.0)
           (-30.0 30.0)
  end
  begin
     id 16
     name head
     direction 0.0205902 0.996147 -0.0852487  
     length 1.84805  
     axis 0 0 0   XYZ
    dof rx ry rz
    limits (-20.0 45.0)
           (-30.0 30.0)
           (-30.0 30.0)
  end
  begin
     id 17 
     name lclavicle
     direction 0.949493 0.303881 -0.0782325  
     length 3.60584  
     axis 0 0 0   XYZ
    dof ry rz
    limits (-20.0 10.0)
           (0.0 20.0)
  end
  begin
     id 18 
     name lhumerus
     direction 1 -4.48965e-011 1.48782e-027   
     length 4.95681   
     axis 180 -30 -90   XYZ
    dof rx ry rz
    limits (-60.0 90.0)
           (-90.0 90.0)
           (-90.0 90.0)
  end
  begin
     id 19
     name lradius
     direction 1 -4.48952e-011 2.06528e-027   
     length 3.40915   
     axis 180 -30 -90   XYZ
    dof rx
    limits (-10.0 170.0)
  end
  begin
     id 20
     name lwrist
     direction 1 -4.48964e-011 1.28021e-027   
     length 1.70457   
     axis -1.61767e-015 90 90   XYZ
    dof ry
    limits (-180.0 0.0)
 end
  begin
     id 21 
     name lhand
     direction 1 -4.49094e-011 2.54887e-027   
     length 0.616403   
     axis -1.63363e-015 90 90   XYZ
    dof rx rz
    limits (-90.0 90.0)
           (-45.0 45.0)
  end
  begin
     id 22 
     name lfingers
     direction 1 -4.49002e-011 5.11407e-027   
     length 0.49696   
     axis -3.26723e-015 90 90   XYZ
    dof rx
    limits (0.0 90.0)
  end
  begin
     id 23
     name lthumb
     direction 0.707107 -6.34998e-011 0.707107   
     length 0.713539   
     axis -90 45 -2.25915e-014   XYZ
    dof rx rz
    limits (-45.0 45.0)
           (-45.0 45.0)
  end
  begin
     id 24 
     name rclavicle
     direction -0.937751 0.334612 -0.0930482   
     length 3.46287  
     axis 0 0 0   XYZ 
    dof ry rz
    limits (-10.0 20.0)
           (-20.0 0.0)
  end
  begin
     id 25 
     name rhumerus
     direction -1 -4.48962e-011 3.59972e-027  
     length 5.352   
     axis 180 30 90   XYZ
    dof rx ry rz
    limits (-90.0 60.0)
           (-90.0 90.0)
           (-90.0 90.0)
  end
  begin
     id 26 
     name rradius
     direction -1 -4.48987e-011 -3.76925e-027   
     length 3.43721   
     axis 180 30 90   XYZ
    dof rx
    limits (-10.0 170.0)
  end
  begin
     id 27 
     name rwrist
     direction -1 -4.48943e-011 1.28112e-027   
     length 1.7186   
     axis -1.61767e-015 -90 -90   XYZ
    dof ry
    limits (-180.0 0.0)
  end
  begin
     id 28
     name rhand
     direction -1 -4.49027e-011 2.55483e-027   
     length 0.72009   
     axis -1.63363e-015 -90 -90   XYZ
    dof rx rz
    limits (-90.0 90.0)
           (-45.0 45.0)
  end
  begin
     id 29
     name rfingers
     direction -1 -4.48827e-011 5.14506e-027   
     length 0.580555   
     axis -3.26723e-015 -90 -90   XYZ
    dof rx
    limits (0.0 90.0)
  end
  begin
     id 30
     name rthumb
     direction -0.707107 -6.34936e-011 0.707107   
     length 0.833564   
     axis -90 -45 2.25915e-014   XYZ
    dof rx rz
    limits (-45.0 45.0)
           (-45.0 45.0)
  end
:hierarchy
  begin
    root lhipjoint rhipjoint lowerback
    lhipjoint lfemur
    lfemur ltibia
    ltibia lfoot
    lfoot ltoes
    rhipjoint rfemur
    rfemur rtibia
    rtibia rfoot
    rfoot rtoes
    lowerback upperback
    upperback thorax
    thorax lowerneck lclavicle rclavicle
    lowerneck upperneck
    upperneck head
    lclavicle lhumerus
    lhumerus lradius
    lradius lwrist
    lwrist lhand lthumb
    lhand lfingers
    rclavicle rhumerus
    rhumerus rradius
    rradius rwrist
    rwrist rhand rthumb
    rhand rfingers
  end

#!OML:ASF H:\Terrain\Patient Classification 1\Terrain2\Thursday\justin.ASF
:FULLY-SPECIFIED
:DEGREES
133
root -12.1599 17.4238 -0.716884 -68.8885 79.9897 -70.1889
lowerback 6.3299 -0.16426 9.62431
upperback 1.68809 0.668664 4.43389
thorax -1.7533 0.384241 -0.838146
lowerneck -13.8635 -2.55478 -8.83244
upperneck 35.6078 -0.704754 2.39035
head 14.7294 -0.737236 2.54569
rclavicle 4.96962e-015 -3.81667e-014
rhumerus -32.2128 -0.716277 -84.5178
rradius 34.7592
rwrist -12.9441
rhand -20.6716 8.34435
rfingers 7.12502
rthumb 5.69141 -21.5592
lclavicle 4.96962e-015 -3.81667e-014
lhumerus -35.8036 7.04723 88.8603
lradius 29.3237
lwrist -2.24117
lhand -24.5293 20.6104
lfingers 7.12502
lthumb 1.96622 50.5811
rfemur -3.29873 -7.23775 32.5705
rtibia 23.8964
rfoot -19.4981 -0.0689242
rtoes 25.727
lfemur -32.422 -0.083387 -6.70421
ltibia 65.4308
lfoot 4.75804 -18.1328
ltoes 14.67
134
root -12.175 17.4349 -0.691066 -69.1482 80.5552 -70.1743
lowerback 6.7542 -0.0160334 9.11921
upperback 1.79837 0.867206 4.26448
thorax -1.86334 0.47962 -0.755003
lowerneck -13.9788 -2.78158 -9.00142
upperneck 35.8377 -1.07585 2.71819
head 14.8963 -0.873637 2.6602
rclavicle -3.97569e-016 -4.29375e-014
rhumerus -32.2604 -1.45738 -84.1982
rradius 34.3909
rwrist -12.9719
rhand -20.9042 8.34141
rfingers 7.12502
rthumb 5.46688 -21.5681
lclavicle -3.97569e-016 -4.29375e-014
lhumerus -35.5606 6.02868 89.3788
lradius 29.5385
lwrist -2.01488
lhand -24.4856 21.588
lfingers 7.12502
lthumb 2.00836 51.5583
rfemur -2.56801 -7.64818 32.0357
rtibia 22.8384
rfoot -18.2982 -0.361799
rtoes 21.9111
lfemur -33.9931 0.525084 -7.3859
ltibia 68.8174
lfoot 2.52333 -17.1999
ltoes 12.7424
135
root -12.2029 17.4344 -0.699068 -66.8075 78.1766 -68.6528
lowerback 6.49005 0.477261 11.5601
upperback 1.64958 1.70985 4.72971
thorax -1.74766 0.907074 -1.66596
lowerneck -13.8665 -2.95297 -8.81477
upperneck 35.7205 -1.37837 2.64656
head 14.8343 -0.984296 2.54401
rclavicle -1.49089e-015 7.87187e-014
rhumerus -32.2337 -2.75516 -83.673
rradius 33.9793
rwrist -11.971
rhand -20.6496 8.32052
rfingers 7.12502
rthumb 5.71262 -21.5825
lclavicle -1.49089e-015 7.87187e-014
lhumerus -35.2833 5.75874 89.7389
lradius 29.6904
lwrist -2.16381
lhand -24.0201 23.0686
lfingers 7.12502
lthumb 2.45797 53.0342
rfemur -3.00453 -6.57956 34.5095
rtibia 21.8626
rfoot -17.3436 -0.164662
rtoes 19.3985
lfemur -36.7378 2.7396 -4.91529
ltibia 72.3527
lfoot 1.27234 -16.4743
ltoes 12.5997
136
root -12.3003 17.3841 -0.704125 -64.072 73.9708 -66.2531
lowerback 7.97793 1.07027 15.1619
upperback 1.47831 3.16423 5.57707
thorax -2.46569 1.59466 -2.87328
lowerneck -13.7397 -3.0727 -8.77876
upperneck 35.4348 -1.64308 2.75583
head 14.689 -1.07664 2.53126
rclavicle 1.35174e-014 -6.36111e-015
rhumerus -31.9572 -3.95955 -83.1763
rradius 33.2364
rwrist -10.7851
rhand -20.174 8.48482
rfingers 7.12502
rthumb 6.1718 -21.4053
lclavicle 1.35174e-014 -6.36111e-015
lhumerus -35.0246 5.81313 89.8979
lradius 29.8666
lwrist -2.5864
lhand -23.584 23.3706
lfingers 7.12502
lthumb 2.87908 53.3309
rfemur -3.04645 -3.58827 38.7657
rtibia 20.8986
rfoot -16.272 -0.913571
rtoes 18.7519
lfemur -39.304 6.2247 -0.519596
ltibia 76.1856
lfoot 1.00783 -16.3404
ltoes 12.3925
137
root -12.1773 17.483 -0.692284 -63.8557 78.6303 -66.0211
lowerback 5.89031 0.891085 11.4132
upperback 1.85623 2.10881 4.40838
thorax -1.1397 1.1333 -1.92858
lowerneck -13.6916 -3.14841 -9.07494
upperneck 35.2791 -1.81091 3.11186
head 14.6262 -1.13952 2.69968
rclavicle -1.10325e-014 7.95139e-016
rhumerus -31.3584 -3.34705 -83.205
rradius 31.8786
rwrist -11.4674
rhand -20.3872 9.14532
rfingers 7.12502
rthumb 5.96598 -20.7507
lclavicle -1.10325e-014 7.95139e-016
lhumerus -34.8243 5.59253 90.0268
lradius 30.0975
lwrist -2.64324
lhand -22.7777 22.635
lfingers 7.12502
lthumb 3.65774 52.5833
rfemur -1.9617 -7.07978 33.7444
rtibia 19.2952
rfoot -16.5051 0.355877
rtoes 17.2578
lfemur -40.4462 4.5037 -5.90003
ltibia 79.0575
lfoot -1.5526 -14.723
ltoes 10.1798
138
root -12.1476 17.4717 -0.510484 -68.9814 79.1282 -68.5935
lowerback 7.87184 0.666701 9.03235
upperback 2.70439 1.89678 4.87447
thorax -1.48367 1.04569 -0.166489
lowerneck -13.5933 -3.17148 -9.01617
upperneck 35.1081 -1.88972 3.1339
head 14.5283 -1.1611 2.68059
rclavicle -1.54058e-014 -7.15625e-015
rhumerus -31.4333 -2.71759 -83.2055
rradius 31.6174
rwrist -11.8706
rhand -20.5936 9.15578
rfingers 7.12502
rthumb 5.76672 -20.7458
lclavicle -1.54058e-014 -7.15625e-015
lhumerus -34.7463 5.38335 90.2187
lradius 30.3957
lwrist -2.4387
lhand -22.7521 22.1379
lfingers 7.12502
lthumb 3.68253 52.0858
rfemur 1.41076 -5.57335 34.1425
rtibia 18.1776
rfoot -16.276 -2.74694
rtoes 16.6391
lfemur -39.5687 4.89139 -5.51042
ltibia 82.2839
lfoot -2.4219 -14.8316
ltoes 10.242
